<mxfile host="Electron" modified="2024-03-21T02:03:40.071Z" agent="Mozilla/5.0 (Windows NT 10.0; Win64; x64) AppleWebKit/537.36 (KHTML, like Gecko) draw.io/24.0.4 Chrome/120.0.6099.109 Electron/28.1.0 Safari/537.36" etag="UFAluRJipxCEhm2aw-J9" version="24.0.4" type="device">
  <diagram name="第 1 页" id="e5cgWH6NaMFV15C2wy5s">
    <mxGraphModel dx="1050" dy="629" grid="1" gridSize="10" guides="1" tooltips="1" connect="1" arrows="1" fold="1" page="1" pageScale="1" pageWidth="827" pageHeight="1169" math="0" shadow="0">
      <root>
        <mxCell id="0" />
        <mxCell id="1" parent="0" />
        <mxCell id="84jdj47C1-tGTXmmA3of-1" value="" style="shape=curlyBracket;whiteSpace=wrap;html=1;rounded=1;labelPosition=left;verticalLabelPosition=middle;align=right;verticalAlign=middle;" vertex="1" parent="1">
          <mxGeometry x="320" y="200" width="30" height="240" as="geometry" />
        </mxCell>
        <mxCell id="84jdj47C1-tGTXmmA3of-2" value="HTPP" style="text;strokeColor=none;align=center;fillColor=none;html=1;verticalAlign=middle;whiteSpace=wrap;rounded=0;" vertex="1" parent="1">
          <mxGeometry x="260" y="285" width="60" height="30" as="geometry" />
        </mxCell>
        <mxCell id="84jdj47C1-tGTXmmA3of-3" value="请求" style="text;strokeColor=none;align=center;fillColor=none;html=1;verticalAlign=middle;whiteSpace=wrap;rounded=0;" vertex="1" parent="1">
          <mxGeometry x="350" y="200" width="60" height="30" as="geometry" />
        </mxCell>
        <mxCell id="84jdj47C1-tGTXmmA3of-4" value="响应" style="text;strokeColor=none;align=center;fillColor=none;html=1;verticalAlign=middle;whiteSpace=wrap;rounded=0;" vertex="1" parent="1">
          <mxGeometry x="345" y="420" width="60" height="30" as="geometry" />
        </mxCell>
        <mxCell id="84jdj47C1-tGTXmmA3of-5" value="" style="shape=curlyBracket;whiteSpace=wrap;html=1;rounded=1;labelPosition=left;verticalLabelPosition=middle;align=right;verticalAlign=middle;" vertex="1" parent="1">
          <mxGeometry x="410" y="100" width="20" height="175" as="geometry" />
        </mxCell>
        <mxCell id="84jdj47C1-tGTXmmA3of-6" value="请求头" style="text;strokeColor=none;align=center;fillColor=none;html=1;verticalAlign=middle;whiteSpace=wrap;rounded=0;" vertex="1" parent="1">
          <mxGeometry x="440" y="97" width="60" height="30" as="geometry" />
        </mxCell>
        <mxCell id="84jdj47C1-tGTXmmA3of-7" value="请求体" style="text;strokeColor=none;align=center;fillColor=none;html=1;verticalAlign=middle;whiteSpace=wrap;rounded=0;" vertex="1" parent="1">
          <mxGeometry x="440" y="230" width="60" height="30" as="geometry" />
        </mxCell>
        <mxCell id="84jdj47C1-tGTXmmA3of-8" value="\r\n" style="text;strokeColor=none;align=center;fillColor=none;html=1;verticalAlign=middle;whiteSpace=wrap;rounded=0;" vertex="1" parent="1">
          <mxGeometry x="435" y="196" width="60" height="30" as="geometry" />
        </mxCell>
        <mxCell id="84jdj47C1-tGTXmmA3of-9" value="&lt;p class=&quot;MsoNormal&quot; style=&quot;line-height:22.0pt;mso-line-height-rule:exactly&quot;&gt;&lt;span lang=&quot;EN-US&quot; style=&quot;font-size:14.0pt;font-family:宋体&quot;&gt;GET / HTTP/1.1&lt;/span&gt;&lt;/p&gt;&lt;p class=&quot;MsoNormal&quot; style=&quot;line-height:22.0pt;mso-line-height-rule:exactly&quot;&gt;&lt;span style=&quot;background-color: initial; font-size: 14pt; font-family: 宋体;&quot; lang=&quot;EN-US&quot;&gt;Host:&lt;/span&gt;&lt;span style=&quot;background-color: initial; font-size: 14pt; font-family: 宋体;&quot;&gt;发送请求的主机&lt;span lang=&quot;EN-US&quot;&gt;ip&lt;/span&gt;地址&lt;/span&gt;&lt;/p&gt;&lt;p class=&quot;MsoNormal&quot; style=&quot;line-height:22.0pt;mso-line-height-rule:exactly&quot;&gt;&lt;span style=&quot;background-color: initial; font-size: 14pt; font-family: 宋体;&quot; lang=&quot;EN-US&quot;&gt;User-Agent:&lt;/span&gt;&lt;span style=&quot;background-color: initial; font-size: 14pt; font-family: 宋体;&quot;&gt;表示客户端本身&lt;/span&gt;&lt;/p&gt;&lt;p class=&quot;MsoNormal&quot; style=&quot;line-height:22.0pt;mso-line-height-rule:exactly&quot;&gt;&lt;span style=&quot;background-color: initial; font-size: 14pt; font-family: 宋体;&quot; lang=&quot;EN-US&quot;&gt;Accept&lt;/span&gt;&lt;span style=&quot;background-color: initial; font-size: 14pt; font-family: 宋体;&quot;&gt;：表示客户端能接收的资源类型。&lt;/span&gt;&lt;/p&gt;" style="text;whiteSpace=wrap;html=1;fillColor=#dae8fc;strokeColor=#6c8ebf;" vertex="1" parent="1">
          <mxGeometry x="540" y="24" width="340" height="176" as="geometry" />
        </mxCell>
        <mxCell id="84jdj47C1-tGTXmmA3of-10" value="" style="shape=curlyBracket;whiteSpace=wrap;html=1;rounded=1;labelPosition=left;verticalLabelPosition=middle;align=right;verticalAlign=middle;" vertex="1" parent="1">
          <mxGeometry x="405" y="305" width="20" height="305" as="geometry" />
        </mxCell>
        <mxCell id="84jdj47C1-tGTXmmA3of-11" value="响应头" style="text;strokeColor=none;align=center;fillColor=none;html=1;verticalAlign=middle;whiteSpace=wrap;rounded=0;" vertex="1" parent="1">
          <mxGeometry x="435" y="370" width="60" height="30" as="geometry" />
        </mxCell>
        <mxCell id="84jdj47C1-tGTXmmA3of-12" value="响应体" style="text;strokeColor=none;align=center;fillColor=none;html=1;verticalAlign=middle;whiteSpace=wrap;rounded=0;" vertex="1" parent="1">
          <mxGeometry x="435" y="585" width="60" height="30" as="geometry" />
        </mxCell>
        <mxCell id="84jdj47C1-tGTXmmA3of-13" value="\r\n" style="text;strokeColor=none;align=center;fillColor=none;html=1;verticalAlign=middle;whiteSpace=wrap;rounded=0;" vertex="1" parent="1">
          <mxGeometry x="430" y="540" width="60" height="30" as="geometry" />
        </mxCell>
        <mxCell id="84jdj47C1-tGTXmmA3of-15" value="（如果是POST请求）json格式数据" style="rounded=0;whiteSpace=wrap;html=1;fillColor=#ffe6cc;strokeColor=#d79b00;" vertex="1" parent="1">
          <mxGeometry x="540" y="220" width="340" height="55" as="geometry" />
        </mxCell>
        <mxCell id="84jdj47C1-tGTXmmA3of-17" value="&lt;p class=&quot;MsoNormal&quot; style=&quot;line-height:22.0pt;mso-line-height-rule:exactly&quot;&gt;&lt;span lang=&quot;EN-US&quot; style=&quot;font-size:14.0pt;font-family:宋体&quot;&gt;HTTP/1.1 200 OK&lt;/span&gt;&lt;/p&gt;&lt;p class=&quot;MsoNormal&quot; style=&quot;line-height:22.0pt;mso-line-height-rule:exactly&quot;&gt;&lt;span style=&quot;font-family: 宋体; font-size: 14pt; background-color: initial;&quot;&gt;Content-Type: text/html&lt;/span&gt;&lt;/p&gt;&lt;p class=&quot;MsoNormal&quot; style=&quot;line-height:22.0pt;mso-line-height-rule:exactly&quot;&gt;&lt;span style=&quot;font-family: 宋体; font-size: 14pt; background-color: initial;&quot;&gt;Content-Length: 21932&lt;/span&gt;&lt;/p&gt;&lt;p class=&quot;MsoNormal&quot; style=&quot;line-height:22.0pt;mso-line-height-rule:exactly&quot;&gt;&lt;span style=&quot;font-family: 宋体; font-size: 14pt; background-color: initial;&quot;&gt;Content-Encoding: gzip&lt;/span&gt;&lt;/p&gt;&lt;p class=&quot;MsoNormal&quot; style=&quot;line-height:22.0pt;mso-line-height-rule:exactly&quot;&gt;&lt;span style=&quot;font-family: 宋体; font-size: 14pt; background-color: initial;&quot;&gt;Cache-Control: max-age=300&lt;/span&gt;&lt;/p&gt;" style="text;whiteSpace=wrap;html=1;fillColor=#dae8fc;strokeColor=#6c8ebf;" vertex="1" parent="1">
          <mxGeometry x="560" y="300" width="280" height="230" as="geometry" />
        </mxCell>
        <mxCell id="84jdj47C1-tGTXmmA3of-18" value="（如果Content-Type是text/html）html页面" style="rounded=0;whiteSpace=wrap;html=1;fillColor=#ffe6cc;strokeColor=#d79b00;" vertex="1" parent="1">
          <mxGeometry x="560" y="585" width="280" height="55" as="geometry" />
        </mxCell>
        <mxCell id="84jdj47C1-tGTXmmA3of-19" value="（如果Content-Type是application/json）json数据" style="rounded=0;whiteSpace=wrap;html=1;fillColor=#ffe6cc;strokeColor=#d79b00;" vertex="1" parent="1">
          <mxGeometry x="560" y="660" width="280" height="55" as="geometry" />
        </mxCell>
      </root>
    </mxGraphModel>
  </diagram>
</mxfile>
